<?xml version="1.0" encoding="UTF-8" standalone="no"?>
<!-- Created with Inkscape (http://www.inkscape.org/) -->

<svg
   xmlns:osb="http://www.openswatchbook.org/uri/2009/osb"
   xmlns:dc="http://purl.org/dc/elements/1.1/"
   xmlns:cc="http://creativecommons.org/ns#"
   xmlns:rdf="http://www.w3.org/1999/02/22-rdf-syntax-ns#"
   xmlns:svg="http://www.w3.org/2000/svg"
   xmlns="http://www.w3.org/2000/svg"
   xmlns:xlink="http://www.w3.org/1999/xlink"
   xmlns:sodipodi="http://sodipodi.sourceforge.net/DTD/sodipodi-0.dtd"
   xmlns:inkscape="http://www.inkscape.org/namespaces/inkscape"
   width="744.09448819"
   height="1052.3622047"
   id="svg2"
   version="1.1"
   inkscape:version="0.48.4 r9939"
   sodipodi:docname="New document 1">
  <defs
     id="defs4">
    <linearGradient
       gradientUnits="userSpaceOnUse"
       y2="974.94019"
       x2="236.74535"
       y1="974.94019"
       x1="66.540512"
       id="linearGradient5271"
       xlink:href="#linearGradient5267"
       inkscape:collect="always" />
    <filter
       color-interpolation-filters="sRGB"
       height="1.2368681"
       y="-0.11843407"
       width="1.0803541"
       x="-0.040177073"
       id="filter3946"
       inkscape:collect="always">
      <feGaussianBlur
         id="feGaussianBlur3948"
         stdDeviation="3.7580747"
         inkscape:collect="always" />
    </filter>
    <inkscape:path-effect
       vertical="false"
       scale_y_rel="false"
       prop_scale="1"
       bendpath="m 123.22894,943.81258 79.65083,0"
       is_visible="true"
       id="path-effect3029"
       effect="bend_path" />
    <inkscape:path-effect
       vertical="false"
       scale_y_rel="false"
       prop_scale="1"
       bendpath="m 123.22894,943.81258 79.65083,0"
       is_visible="true"
       id="path-effect3031"
       effect="bend_path" />
    <inkscape:path-effect
       bendpath4-nodetypes="cc"
       bendpath3-nodetypes="cc"
       bendpath2-nodetypes="cc"
       bendpath1-nodetypes="cc"
       bendpath4="m 134.27996,889.68191 20.8921,126.35899"
       bendpath3="m 168.89527,1023.8942 66.91127,-12.7556"
       bendpath2="m 189.43076,866.55287 21.46332,108.98912"
       bendpath1="m 123.22894,864.8803 84.69364,0.28333"
       xx="true"
       yy="true"
       is_visible="false"
       id="path-effect3033"
       effect="envelope" />
    <inkscape:path-effect
       vertical="false"
       scale_y_rel="false"
       prop_scale="1"
       bendpath="m 123.22894,943.81258 79.65083,0"
       is_visible="true"
       id="path-effect3035"
       effect="bend_path" />
    <inkscape:path-effect
       nr_y="5"
       nr_x="5"
       is_visible="true"
       id="path-effect3037"
       effect="construct_grid" />
    <inkscape:path-effect
       fuse_tolerance="0"
       vertical_pattern="false"
       prop_units="false"
       tang_offset="0"
       normal_offset="0"
       spacing="0"
       scale_y_rel="false"
       prop_scale="1"
       copytype="single_stretched"
       pattern="M 0,0 1,0"
       is_visible="true"
       id="path-effect3039"
       effect="skeletal" />
    <inkscape:path-effect
       bendpath-nodetypes="czc"
       vertical="true"
       scale_y_rel="false"
       prop_scale="1"
       bendpath="m 232.12814,1080.0415 c 0,0 -43.75787,-38.5988 -45.30033,-71.3556 -1.54245,-32.75679 22.08299,-76.77659 22.08299,-76.77659"
       is_visible="true"
       id="path-effect3041"
       effect="bend_path" />
    <inkscape:path-effect
       bendpath3-nodetypes="cc"
       bendpath4="m 123.22894,864.8803 0,157.8646"
       bendpath3="m 159.10668,1023.7712 80.44057,-16.1748"
       bendpath2="m 202.87977,864.8803 0,157.8646"
       bendpath1="m 123.22894,864.8803 79.65083,0"
       xx="true"
       yy="true"
       is_visible="true"
       id="path-effect3043"
       effect="envelope" />
    <inkscape:path-effect
       bendpath-nodetypes="czc"
       vertical="true"
       scale_y_rel="false"
       prop_scale="0.89"
       bendpath="m 185.8584,867.04099 c 0,0 -19.58003,42.76312 -19.26851,69.19545 0.31151,26.43232 21.13759,89.39846 21.13759,89.39846"
       is_visible="true"
       id="path-effect3020"
       effect="bend_path" />
    <inkscape:path-effect
       bendpath-nodetypes="cc"
       vertical="false"
       scale_y_rel="false"
       prop_scale="1"
       bendpath="m -0.22566942,772.08665 c 49.02619142,32.35798 101.22421942,36.16941 157.86456942,0"
       is_visible="true"
       id="path-effect3870"
       effect="bend_path" />
    <linearGradient
       osb:paint="solid"
       id="linearGradient5267">
      <stop
         id="stop5269"
         offset="0"
         style="stop-color:#ffffff;stop-opacity:1;" />
    </linearGradient>
  </defs>
  <sodipodi:namedview
     id="base"
     pagecolor="#ffffff"
     bordercolor="#666666"
     borderopacity="1.0"
     inkscape:pageopacity="0.0"
     inkscape:pageshadow="2"
     inkscape:zoom="0.35"
     inkscape:cx="375"
     inkscape:cy="520"
     inkscape:document-units="px"
     inkscape:current-layer="layer1"
     showgrid="false"
     inkscape:window-width="1680"
     inkscape:window-height="1031"
     inkscape:window-x="-4"
     inkscape:window-y="-4"
     inkscape:window-maximized="1" />
  <metadata
     id="metadata7">
    <rdf:RDF>
      <cc:Work
         rdf:about="">
        <dc:format>image/svg+xml</dc:format>
        <dc:type
           rdf:resource="http://purl.org/dc/dcmitype/StillImage" />
        <dc:title></dc:title>
      </cc:Work>
    </rdf:RDF>
  </metadata>
  <g
     inkscape:label="Layer 1"
     inkscape:groupmode="layer"
     id="layer1">
    <g
       id="g3057"
       transform="translate(265.63281,465.90784)">
      <g
         transform="translate(0,-924.36217)"
         style="display:none"
         inkscape:label="Layer 1"
         id="layer1-9">
        <g
           id="g3839"
           style="display:inline">
          <path
             sodipodi:nodetypes="cssssssssssssscssssssssssssssssssssssssssssssscc"
             inkscape:connector-curvature="0"
             id="path2989"
             d="m 157.25623,765.14101 c 0,0 -0.1698,-3.21524 -6.1438,-5.26461 -2.0264,-0.69519 -5.2258,0.006 -8.808,-0.2494 -4.1294,-0.29496 -6.1279,-2.2045 -8.00243,-2.94529 -2.95004,-1.16585 -3.33166,-0.7966 -7.04988,-1.42227 -2.01052,-0.33832 -4.68609,2.00811 -8.1812,0.0744 -2.43744,-1.34852 -6.2883,-1.79832 -10.09593,-3.24249 -2.55316,-0.96837 -1.69042,-5.1309 -4.14625,-7.17428 -2.26982,-1.88862 -6.085475,-2.13823 -8.350765,-4.07005 -2.40627,-2.05204 -6.03558,-5.77531 -8.28374,-7.3774 -2.93095,-2.08866 -6.16563,0.46399 -8.51927,0.14593 -4.15411,-0.56137 -6.72999,-1.96709 -9.08174,-1.05332 -3.53443,1.3733 -3.40151,3.23514 -4.80946,5.839 -1.86967,3.45775 -4.91418,2.34232 -7.82707,2.79046 -2.36647,0.36407 -4.92976,3.03691 -7.61893,2.45418 -2.40941,-0.52212 -3.90971,-2.2351 -6.47021,-2.7615 -2.51097,-0.51622 -6.0802,0.14738 -8.63929,0.30732 -4.53681,0.28355 -5.60985,3.19663 -7.95156,5.17258 -1.82948,1.54372 -4.98104,0.66238 -8.96851,2.65611 -2.96432,1.48216 -3.50533,6.48809 -6.00751,8.04979 -2.9181702,1.82134 -10.7157202,-0.77881 -9.2472802,3.72726 0.98527,3.02342 -3.18049,5.28723 -3.18049,8.67853 0,2.33444 -0.84589,7.29588 2.41794,8.21698 8.3485802,2.3561 3.56766,3.97387 5.06225,6.65079 2.04331,3.65971 5.1210402,1.93872 7.4006102,3.7895 2.23056,1.81099 2.91627,8.05271 5.72461,7.4594 7.31206,-1.5448 5.35246,2.21599 8.18394,2.67268 3.63147,0.58572 5.11166,-1.9245 6.9587,-2.17113 3.8423,-0.51305 4.90075,3.64941 7.65682,3.65028 1.63137,5.2e-4 5.1202,-2.95753 8.87053,-1.22661 3.53627,1.63213 0.98089,5.17852 1.59861,6.88667 1.11248,3.07629 4.1296,1.11842 6.86052,1.46725 5.36196,0.68491 2.32358,5.27884 6.44062,5.0306 2.94342,-0.17747 5.67543,-5.3346 8.23301,-6.24168 2.70433,-0.95912 5.21392,2.30175 7.5734,0.87008 2.46568,-1.49611 2.49459,-5.42543 4.68335,-7.03817 2.40485,-1.77195 7.95628,-1.72334 10.15587,-3.11896 2.640315,-1.67528 3.413655,-6.16739 5.972395,-6.44209 3.01468,-0.32365 4.64972,-3.45941 6.78316,-4.56205 2.39622,-1.23844 6.48576,2.52401 8.74209,1.10517 2.09395,-1.31673 4.85412,-6.82553 7.68125,-2.28554 1.20798,1.93985 3.74882,-1.17933 6.84553,-1.07611 3.56751,0.11892 5.83451,-2.37029 8.40031,-2.41877 4.0801,-0.0771 8.2628,-0.11571 10.3608,-0.62861 4.4346,-1.08407 4.6922,-0.88592 4.9775,-4.02369 0.1739,-1.91321 0.2043,-3.80143 0.1694,-5.455 -0.067,-3.14829 -0.3699,-5.44597 -0.3699,-5.44597 l 0,0"
             style="fill:#128e00;fill-opacity:1;stroke:#000000;stroke-width:0.5;stroke-linecap:butt;stroke-linejoin:miter;stroke-miterlimit:4;stroke-opacity:1;stroke-dasharray:none" />
          <path
             sodipodi:nodetypes="ccccscccccsccccccsssssscsscsssscsssscsscsssssczczcsssssscc"
             inkscape:connector-curvature="0"
             id="path2987"
             d="m 153.6574,776.116 c -2.4565,-0.48643 -5.3634,-0.88342 -8.5526,-1.20631 -2.703,-0.27366 -5.6087,-0.49409 -8.6147,-0.67064 -2.8172,-0.16546 -5.72243,-0.29236 -8.63142,-0.38841 -2.90399,-0.0959 -5.81171,-0.16101 -8.63924,-0.20303 -3.00406,-0.0446 -5.91762,-0.0632 -8.64005,-0.0649 -3.1979,-0.002 -6.13208,0.0195 -8.63946,0.0493 -5.25839,0.0626 -8.63969,0.1625 -8.63969,0.1625 -1.45116,2.567 -2.97872,4.90441 -4.60689,7.05968 -1.73405,2.29541 -3.5822,4.38422 -5.5737,6.32377 -1.99448,1.94246 -4.13274,3.73521 -6.44413,5.43583 -2.18641,1.60866 -4.52773,3.13489 -7.04882,4.62743 -2.30883,1.36687 -4.76843,2.70549 -7.39789,4.05329 2.56164,-2.05412 4.91515,-3.91603 7.05304,-5.64596 2.61652,-2.11722 4.9101,-4.03675 6.86703,-5.86899 2.51057,-2.3506 4.46708,-4.55755 5.84066,-6.85397 1.57361,-2.63084 2.38213,-5.91483 2.38213,-9.13107 -2.06177,0 -4.03128,0.19536 -7.49295,-0.10187 -2.25923,-0.19398 -4.76195,-0.43269 -7.50767,-0.43484 -2.3294,-0.002 -8.40274,-0.3944 -11.07081,9.9e-4 -2.55156,0.37812 -3.11616,1.99868 -5.80468,3.75533 -2.17033,1.41806 -2.83754,3.33611 -5.31181,5.19077 -2.14788,1.61 -4.44642,3.30679 -6.95836,4.95547 -2.27581,1.4937 -4.72679,2.9479 -7.39959,4.26227 2.21072,-1.78248 4.25657,-3.614 6.10452,-5.39324 2.16856,-2.08793 4.06461,-4.10386 5.63477,-5.88404 2.87909,-3.26416 4.66253,-5.73568 5.02136,-6.40501 -3.65492,-0.0432 -6.40426,-0.15878 -9.19422,-0.33513 -2.7259,-0.17231 -5.49059,-0.40257 -9.17657,-0.67982 -2.53063,-0.19035 -5.49552,-0.40285 -9.18027,-0.63395 -2.65342,-0.16641 -5.68014,-0.34247 -9.18679,-0.52684 -2.75116,-0.14465 -5.7977305,-0.29442 -9.1912205,-0.44867 3.18436,-0.1165 6.02434,-0.22244 8.5743405,-0.32089 3.30544,-0.12761 6.12362,-0.24263 8.57299,-0.35172 3.49055,-0.15545 6.23209,-0.29887 8.56743,-0.44954 3.34703,-0.21595 5.85967,-0.4468 8.5471,-0.74937 2.44198,-0.27493 5.02829,-0.60907 8.51606,-1.04504 -0.18245,-1.77957 -1.25997,-3.8397 -3.26287,-6.31264 -1.27005,-1.56811 -2.91218,-3.3022 -4.93412,-5.23599 -1.55399,-1.48625 -3.33234,-3.09047 -5.33854,-4.82796 3.10583,1.18511 5.98713,2.87145 8.60514,4.72514 2.86409,2.02794 5.41306,4.25615 7.59616,6.24746 3.69012,3.36593 6.33488,6.05499 7.68919,5.9558 2.54811,-0.18663 5.05812,-0.31003 7.91495,-0.39034 2.8835,-0.0811 6.11364,-0.1182 8.63745,-0.13213 4.76256,-0.0263 12.210291,-0.68419 12.210291,-0.68419 -1.470006,-5.14512 -2.387732,-6.48967 -5.119211,-10.43296 -2.731479,-3.94329 -7.950164,-7.91846 -11.75842,-11.17418 2.54738,0.90622 12.048415,5.92822 16.336178,9.92674 4.287763,3.99853 6.644311,8.32652 8.330207,12.07004 1.61925,0.27788 2.123275,0.14581 6.287525,0.24795 2.6755,0.0656 5.74128,0.0976 9.02385,0.0994 2.88033,0.002 5.92759,-0.0202 9.02456,-0.0628 2.99628,-0.0413 6.03909,-0.10223 9.0223,-0.18071 3.11159,-0.0819 6.15836,-0.18281 9.01976,-0.30049 3.3155,-0.13636 6.3823,-0.29518 9.0129,-0.47279 4.8417,-0.32689 8.206,-0.71743 8.9248,-1.14872 l 0,10"
             style="fill:#93d11f;fill-opacity:1;stroke:none" />
          <g
             id="g3831">
            <g
               style="fill:#74b400;fill-opacity:1"
               id="g3821">
              <path
                 style="fill:#74b400;fill-opacity:1;stroke:none"
                 d="m 153.54319,772.17112 0.12627,4.16688 c 0,0 -26.04841,-2.38379 -34.38217,-2.51006 -8.33376,-0.12627 -25.691273,0.12627 -25.691273,0.12627 0,0 -4.702593,8.31844 -11.773661,14.63189 -7.071068,6.31345 -19.192898,12.37437 -19.192898,12.37437 0,0 8.460027,-4.29315 16.667517,-12.2481 8.207489,-7.95495 10.85914,-14.39468 11.995561,-15.5311 1.136422,-1.13642 26.769044,-2.52538 33.966384,-2.14657 7.19733,0.37881 28.28427,1.13642 28.28427,1.13642 z"
                 id="path3035"
                 inkscape:connector-curvature="0"
                 sodipodi:nodetypes="ccscscsssc" />
              <path
                 style="fill:#74b400;fill-opacity:1;stroke:none"
                 d="m 84.464285,774.14789 c 0,0 -7.142856,-0.35714 -14.107142,-0.62499 -6.15681,-0.2368 -14.017858,0.44642 -16.160714,2.32143 -4.041161,3.53603 -7.678572,7.85714 -11.875,10.35714 -4.196429,2.5 -9.375,5.26786 -9.375,5.26786 0,0 10.982142,-7.85715 13.928571,-10.71429 2.946429,-2.85714 6.401717,-6.95186 9.642857,-8.30357 1.539479,-0.64204 25.089286,-1.25 26.160715,-0.625 1.071428,0.625 1.785713,2.32142 1.785713,2.32142 z"
                 id="path3809"
                 inkscape:connector-curvature="0"
                 sodipodi:nodetypes="cssscsssc" />
            </g>
            <path
               sodipodi:nodetypes="ccsc"
               inkscape:connector-curvature="0"
               id="path3825"
               d="m 49.497475,773.68635 c -15.500327,0.191 -29.967859,-1.68359 -44.9517885,-2.52538 0,0 35.1028015,1.13642 39.6484875,1.13642 4.545687,0 5.303301,1.38896 5.303301,1.38896 z"
               style="fill:#74b400;fill-opacity:1;stroke:none" />
            <path
               sodipodi:nodetypes="cscssc"
               inkscape:connector-curvature="0"
               id="path3827"
               d="m 93.214286,767.80861 c 0,0 -1.928493,-5.97438 -5.803572,-10.17857 -5.519599,-5.98837 -18.482142,-11.60714 -18.482142,-11.60714 0,0 12.410714,6.96428 17.946428,14.375 1.557838,2.08549 2.767857,5.80357 4.375,6.78571 1.607143,0.98215 1.964286,0.625 1.964286,0.625 z"
               style="fill:#74b400;fill-opacity:1;stroke:none" />
            <path
               inkscape:connector-curvature="0"
               id="path3829"
               d="m 56.063466,768.50932 c 0,0 -7.197337,-6.69226 -11.869292,-10.35407 -4.671956,-3.6618 -10.985409,-6.43972 -10.985409,-6.43972 0,0 11.237947,7.57615 13.763328,10.48033 2.525382,2.90419 4.16688,5.55584 5.808377,5.93465 1.641498,0.37881 3.282996,0.37881 3.282996,0.37881 z"
               style="fill:#74b400;fill-opacity:1;stroke:none" />
          </g>
        </g>
      </g>
      <g
         transform="translate(0,-924.36217)"
         style="display:inline"
         inkscape:label="Layer"
         id="layer2">
        <g
           transform="translate(-35.23734,55.012621)"
           style="opacity:0.5;fill:#000000;fill-opacity:1;stroke:none;filter:url(#filter3946)"
           id="g3916">
          <text
             sodipodi:linespacing="125%"
             id="text3918"
             y="951.71967"
             x="104.69363"
             style="font-size:72px;font-style:normal;font-variant:normal;font-weight:normal;font-stretch:normal;line-height:125%;letter-spacing:0px;word-spacing:0px;fill:#000000;fill-opacity:1;stroke:none;font-family:Harabara;-inkscape-font-specification:GeosansLight"
             xml:space="preserve"><tspan
               style="font-style:normal;font-variant:normal;font-weight:normal;font-stretch:normal;fill:#000000;fill-opacity:1;stroke:none;font-family:BorisBlackBloxx;-inkscape-font-specification:BorisBlackBloxx"
               y="951.71967"
               x="104.69363"
               id="tspan3920"
               sodipodi:role="line">kaIL</tspan></text>
          <g
             inkscape:path-effect="#path-effect3870"
             transform="matrix(0.68251363,0.28200645,-0.19774899,0.47859325,206.54861,549.39191)"
             id="g3922"
             style="fill:#000000;fill-opacity:1;stroke:none;display:inline">
            <path
               inkscape:original-d="m 157.25623,765.14101 c 0,0 -0.1698,-3.21524 -6.1438,-5.26461 -2.0264,-0.69519 -5.2258,0.006 -8.808,-0.2494 -4.1294,-0.29496 -6.1279,-2.2045 -8.00243,-2.94529 -2.95004,-1.16585 -3.33166,-0.7966 -7.04988,-1.42227 -2.01052,-0.33832 -4.68609,2.00811 -8.1812,0.0744 -2.43744,-1.34852 -6.2883,-1.79832 -10.09593,-3.24249 -2.55316,-0.96837 -1.69042,-5.1309 -4.14625,-7.17428 -2.26982,-1.88862 -6.085475,-2.13823 -8.350765,-4.07005 -2.40627,-2.05204 -6.03558,-5.77531 -8.28374,-7.3774 -2.93095,-2.08866 -6.16563,0.46399 -8.51927,0.14593 -4.15411,-0.56137 -6.72999,-1.96709 -9.08174,-1.05332 -3.53443,1.3733 -3.40151,3.23514 -4.80946,5.839 -1.86967,3.45775 -4.91418,2.34232 -7.82707,2.79046 -2.36647,0.36407 -4.92976,3.03691 -7.61893,2.45418 -2.40941,-0.52212 -3.90971,-2.2351 -6.47021,-2.7615 -2.51097,-0.51622 -6.0802,0.14738 -8.63929,0.30732 -4.53681,0.28355 -5.60985,3.19663 -7.95156,5.17258 -1.82948,1.54372 -4.98104,0.66238 -8.96851,2.65611 -2.96432,1.48216 -3.50533,6.48809 -6.00751,8.04979 -2.9181702,1.82134 -10.7157202,-0.77881 -9.2472802,3.72726 0.98527,3.02342 -3.18049,5.28723 -3.18049,8.67853 0,2.33444 -0.84589,7.29588 2.41794,8.21698 8.3485802,2.3561 3.56766,3.97387 5.06225,6.65079 2.04331,3.65971 5.1210402,1.93872 7.4006102,3.7895 2.23056,1.81099 2.91627,8.05271 5.72461,7.4594 7.31206,-1.5448 5.35246,2.21599 8.18394,2.67268 3.63147,0.58572 5.11166,-1.9245 6.9587,-2.17113 3.8423,-0.51305 4.90075,3.64941 7.65682,3.65028 1.63137,5.2e-4 5.1202,-2.95753 8.87053,-1.22661 3.53627,1.63213 0.98089,5.17852 1.59861,6.88667 1.11248,3.07629 4.1296,1.11842 6.86052,1.46725 5.36196,0.68491 2.32358,5.27884 6.44062,5.0306 2.94342,-0.17747 5.67543,-5.3346 8.23301,-6.24168 2.70433,-0.95912 5.21392,2.30175 7.5734,0.87008 2.46568,-1.49611 2.49459,-5.42543 4.68335,-7.03817 2.40485,-1.77195 7.95628,-1.72334 10.15587,-3.11896 2.640315,-1.67528 3.413655,-6.16739 5.972395,-6.44209 3.01468,-0.32365 4.64972,-3.45941 6.78316,-4.56205 2.39622,-1.23844 6.48576,2.52401 8.74209,1.10517 2.09395,-1.31673 4.85412,-6.82553 7.68125,-2.28554 1.20798,1.93985 3.74882,-1.17933 6.84553,-1.07611 3.56751,0.11892 5.83451,-2.37029 8.40031,-2.41877 4.0801,-0.0771 8.2628,-0.11571 10.3608,-0.62861 4.4346,-1.08407 4.6922,-0.88592 4.9775,-4.02369 0.1739,-1.91321 0.2043,-3.80143 0.1694,-5.455 -0.067,-3.14829 -0.3699,-5.44597 -0.3699,-5.44597 l 0,0"
               style="fill:#000000;fill-opacity:1;stroke:none"
               d="m 153.56767,766.44336 c 0,0 -0.47081,-0.65119 -1.71884,-1.12274 -1.24803,-0.47155 -3.26509,-0.75694 -6.36984,-0.13165 -2.1063,0.42416 -4.53973,2.61897 -7.82593,4.04803 -1.89421,0.82344 -3.5086,1.0072 -4.8846,1.00109 -1.376,-0.006 -2.51666,-0.20204 -3.50126,-0.15346 -1.54952,0.0765 -2.36367,0.22137 -3.23752,0.46382 -0.87385,0.24245 -1.80704,0.58416 -3.57314,0.97731 -0.95497,0.21259 -1.80573,1.10105 -2.91131,1.85548 -1.10559,0.75442 -2.47098,1.376 -4.35447,1.01502 -2.62702,-0.50346 -6.20362,0.19631 -9.93155,-0.27658 -1.24986,-0.15855 -1.93523,-1.30636 -2.63016,-2.58604 -0.69492,-1.27969 -1.40352,-2.69082 -2.652448,-3.4362 -1.154336,-0.68894 -2.512397,-0.9246 -3.852286,-1.19794 -1.33989,-0.27333 -2.661402,-0.58467 -3.715441,-1.38236 -1.119636,-0.84734 -2.509882,-2.08947 -3.813563,-3.31528 -1.303681,-1.2258 -2.520853,-2.43479 -3.40653,-3.16039 -1.154668,-0.94598 -2.224542,-0.76796 -3.25129,-0.39726 -1.026748,0.37069 -2.009908,0.93378 -2.848562,0.76417 -0.960233,-0.19419 -1.791122,-0.4985 -2.526924,-0.79341 -1.559877,-0.54311 -2.718634,-1.04248 -3.894416,-0.50172 -1.307703,0.60142 -2.002287,1.34317 -2.525987,2.25936 -0.523701,0.91618 -0.874399,2.0025 -1.558281,3.23595 -0.908153,1.63793 -1.958397,2.10015 -3.063523,2.15388 -1.105126,0.0537 -2.259795,-0.30056 -3.455671,-0.28876 -0.971544,0.01 -2.09552,0.56374 -3.253397,0.97328 -1.157877,0.40955 -2.350212,0.67383 -3.370903,0.12316 -1.829011,-0.9868 -2.576745,-2.96497 -4.430459,-4.07008 -1.00549,-0.59944 -2.358128,-0.94784 -3.717317,-1.24893 -1.108016,-0.24309 -2.222178,-0.45868 -3.144461,-0.72592 -1.829394,-0.53008 -3.222666,-0.24089 -4.50652,0.31898 -1.283854,0.55987 -2.451447,1.38813 -3.801562,1.86963 -1.054787,0.37618 -2.142519,0.0666 -3.472266,-0.31886 -1.329747,-0.38541 -2.897919,-0.84505 -4.983884,-0.80194 -3.101451,0.0641 -5.939591,4.21412 -8.835918,4.3747 -1.688924,0.0936 -3.874788,-1.40394 -5.743405,-2.3812 -1.868618,-0.97726 -3.4545677,-1.42981 -4.039221,0.868 -0.392284,1.54176 -1.775586,2.23308 -3.3110738,2.87205 -1.5354877,0.63897 -3.221314,1.22263 -4.154638,2.63833 -0.6424643,0.97452 -1.83650909,2.37195 -2.5665921,3.86381 -0.7300829,1.49187 -0.9921525,3.08857 0.2667881,4.44351 1.61012649,1.73291 2.5220916,2.9244 2.9579706,3.80498 0.4358789,0.88058 0.3980949,1.44773 0.1484268,1.90096 -0.4993362,0.90646 -1.85277792,1.34565 -1.81508833,2.93145 0.0515288,2.168 1.08088043,3.33968 2.26490113,4.3163 1.1840207,0.97661 2.5204847,1.75693 3.2462891,3.20381 0.7101996,1.41577 0.5231414,3.59372 0.5808603,5.55511 0.057719,1.96139 0.365166,3.70995 2.031171,4.20484 2.1688842,0.64427 3.5686672,1.23906 4.4944052,1.82545 0.925738,0.58638 1.376914,1.16144 1.648763,1.72417 0.543699,1.12545 0.362749,2.20422 1.897591,3.11227 1.968488,1.16461 3.646257,1.32307 5.087897,1.26556 1.441639,-0.0575 2.653085,-0.33079 3.773028,-0.0437 1.795904,0.46045 2.881278,1.36986 3.74164,2.39305 1.380289,1.63135 2.185001,3.55325 4.270131,4.19317 1.004135,0.30817 2.794743,0.0725 4.840461,0.0908 2.045718,0.0183 4.339942,0.28776 6.494711,1.66722 2.031779,1.30072 2.091655,2.61988 1.666772,3.86314 -0.424883,1.24326 -1.335266,2.39207 -1.109411,3.31392 0.406751,1.6602 1.729034,2.22327 3.39048,2.47545 1.661446,0.25219 3.653311,0.18955 5.464824,0.64567 1.778386,0.44779 2.82699,1.00456 3.485882,1.61841 0.658891,0.61386 0.926713,1.28149 1.146792,1.91428 0.440159,1.26559 0.690361,2.41311 3.599929,2.57605 2.080154,0.11648 4.19882,-1.05309 6.19535,-2.35595 1.996531,-1.30286 3.872334,-2.73806 5.636976,-3.14258 0.372265,-0.0853 0.740329,-0.13009 1.105261,-0.14301 1.659267,-0.0912 3.253409,0.46786 4.815253,0.86827 1.561845,0.4004 3.089997,0.64198 4.518134,-0.0778 1.65779,-0.83554 2.420701,-2.24582 3.115601,-3.66477 0.6949,-1.41894 1.322393,-2.84777 2.671448,-3.77506 1.482244,-1.01884 3.98424,-1.70767 6.422047,-2.41333 2.437808,-0.70566 4.812185,-1.42647 6.057975,-2.34465 1.4954,-1.10217 2.25334,-2.80884 3.00149,-4.34192 0.74816,-1.53308 1.48429,-2.89256 2.95587,-3.35663 1.7338,-0.54676 2.8884,-1.71151 3.86061,-2.94365 0.9722,-1.23214 1.76462,-2.53316 2.81303,-3.39223 1.17755,-0.96487 3.15118,-0.87901 5.11933,-0.85265 1.96815,0.0264 3.92867,-0.007 4.94094,-1.10506 0.93941,-1.01949 1.68575,-3.09734 2.74095,-4.53176 1.0552,-1.43442 2.41772,-2.22393 4.78205,-0.72516 1.01024,0.6404 1.90574,-0.0445 2.93946,-1.05603 1.03373,-1.01153 2.19938,-2.34763 3.82585,-3.03522 1.87375,-0.79212 3.11722,-2.05082 4.19713,-3.2706 1.07991,-1.21978 1.99823,-2.40213 3.26258,-3.0908 4.02111,-2.19024 8.04737,-4.58204 9.78254,-6.22916 1.83386,-1.74076 2.80603,-2.62633 3.16076,-3.41791 0.35474,-0.79159 0.0848,-1.49294 -0.62759,-2.8998 -0.86885,-1.71561 -1.85939,-3.32332 -2.78042,-4.69718 -1.75407,-2.61543 -3.2527,-4.38661 -3.2527,-4.38661"
               id="path3924"
               inkscape:connector-curvature="0"
               sodipodi:nodetypes="cssssssssssssscssssssssssssssssssssssssssssssscc" />
            <path
               inkscape:original-d="m 153.6574,776.116 c -2.4565,-0.48643 -5.3634,-0.88342 -8.5526,-1.20631 -2.703,-0.27366 -5.6087,-0.49409 -8.6147,-0.67064 -2.8172,-0.16546 -5.72243,-0.29236 -8.63142,-0.38841 -2.90399,-0.0959 -5.81171,-0.16101 -8.63924,-0.20303 -3.00406,-0.0446 -5.91762,-0.0632 -8.64005,-0.0649 -3.1979,-0.002 -6.13208,0.0195 -8.63946,0.0493 -5.25839,0.0626 -8.63969,0.1625 -8.63969,0.1625 -1.45116,2.567 -2.97872,4.90441 -4.60689,7.05968 -1.73405,2.29541 -3.5822,4.38422 -5.5737,6.32377 -1.99448,1.94246 -4.13274,3.73521 -6.44413,5.43583 -2.18641,1.60866 -4.52773,3.13489 -7.04882,4.62743 -2.30883,1.36687 -4.76843,2.70549 -7.39789,4.05329 2.56164,-2.05412 4.91515,-3.91603 7.05304,-5.64596 2.61652,-2.11722 4.9101,-4.03675 6.86703,-5.86899 2.51057,-2.3506 4.46708,-4.55755 5.84066,-6.85397 1.57361,-2.63084 2.38213,-5.91483 2.38213,-9.13107 -2.06177,0 -4.03128,0.19536 -7.49295,-0.10187 -2.25923,-0.19398 -4.76195,-0.43269 -7.50767,-0.43484 -2.3294,-0.002 -8.40274,-0.3944 -11.07081,9.9e-4 -2.55156,0.37812 -3.11616,1.99868 -5.80468,3.75533 -2.17033,1.41806 -2.83754,3.33611 -5.31181,5.19077 -2.14788,1.61 -4.44642,3.30679 -6.95836,4.95547 -2.27581,1.4937 -4.72679,2.9479 -7.39959,4.26227 2.21072,-1.78248 4.25657,-3.614 6.10452,-5.39324 2.16856,-2.08793 4.06461,-4.10386 5.63477,-5.88404 2.87909,-3.26416 4.66253,-5.73568 5.02136,-6.40501 -3.65492,-0.0432 -6.40426,-0.15878 -9.19422,-0.33513 -2.7259,-0.17231 -5.49059,-0.40257 -9.17657,-0.67982 -2.53063,-0.19035 -5.49552,-0.40285 -9.18027,-0.63395 -2.65342,-0.16641 -5.68014,-0.34247 -9.18679,-0.52684 -2.75116,-0.14465 -5.7977305,-0.29442 -9.1912205,-0.44867 3.18436,-0.1165 6.02434,-0.22244 8.5743405,-0.32089 3.30544,-0.12761 6.12362,-0.24263 8.57299,-0.35172 3.49055,-0.15545 6.23209,-0.29887 8.56743,-0.44954 3.34703,-0.21595 5.85967,-0.4468 8.5471,-0.74937 2.44198,-0.27493 5.02829,-0.60907 8.51606,-1.04504 -0.18245,-1.77957 -1.25997,-3.8397 -3.26287,-6.31264 -1.27005,-1.56811 -2.91218,-3.3022 -4.93412,-5.23599 -1.55399,-1.48625 -3.33234,-3.09047 -5.33854,-4.82796 3.10583,1.18511 5.98713,2.87145 8.60514,4.72514 2.86409,2.02794 5.41306,4.25615 7.59616,6.24746 3.69012,3.36593 6.33488,6.05499 7.68919,5.9558 2.54811,-0.18663 5.05812,-0.31003 7.91495,-0.39034 2.8835,-0.0811 6.11364,-0.1182 8.63745,-0.13213 4.76256,-0.0263 12.210291,-0.68419 12.210291,-0.68419 -1.470006,-5.14512 -2.387732,-6.48967 -5.119211,-10.43296 -2.731479,-3.94329 -7.950164,-7.91846 -11.75842,-11.17418 2.54738,0.90622 12.048415,5.92822 16.336178,9.92674 4.287763,3.99853 6.644311,8.32652 8.330207,12.07004 1.61925,0.27788 2.123275,0.14581 6.287525,0.24795 2.6755,0.0656 5.74128,0.0976 9.02385,0.0994 2.88033,0.002 5.92759,-0.0202 9.02456,-0.0628 2.99628,-0.0413 6.03909,-0.10223 9.0223,-0.18071 3.11159,-0.0819 6.15836,-0.18281 9.01976,-0.30049 3.3155,-0.13636 6.3823,-0.29518 9.0129,-0.47279 4.8417,-0.32689 8.206,-0.71743 8.9248,-1.14872 l 0,10"
               style="fill:#000000;fill-opacity:1;stroke:none"
               d="m 156.1305,777.78411 c -2.54005,0.98015 -5.47052,2.23626 -8.6701,3.61154 -2.71179,1.16561 -5.61688,2.41646 -8.63225,3.66726 -2.82598,1.17223 -5.74869,2.34416 -8.69139,3.45929 -2.93764,1.11319 -5.8951,2.16954 -8.78833,3.13094 -3.07385,1.02146 -6.07516,1.93536 -8.8957,2.72175 -3.31316,0.92373 -6.37671,1.67142 -9.00717,2.25205 -2.75824,0.60889 -5.039712,1.03695 -6.630153,1.31902 -1.590441,0.28206 -2.489043,0.42297 -2.489043,0.42297 -1.200571,2.74085 -2.609907,5.25137 -4.246888,7.5656 -1.743436,2.4647 -3.744853,4.70706 -6.03842,6.75968 -2.296999,2.05571 -4.88678,3.92143 -7.817932,5.61693 -0.2482,0.14357 -0.498858,0.28591 -0.752008,0.42703 -2.561545,1.40059 -5.357746,2.66421 -8.410669,3.79278 -3.07077,1.13516 -6.40131,2.13391 -10.017899,2.98636 3.627056,-1.56405 6.848175,-3.10026 9.700785,-4.60801 3.453107,-1.82513 6.366663,-3.60816 8.785911,-5.37481 0.02684,-0.0198 0.05362,-0.0397 0.08034,-0.0595 3.137209,-2.32742 5.412244,-4.60158 6.922826,-6.95328 1.730562,-2.69418 2.418737,-6.02026 2.232988,-9.21774 -1.108945,0.065 -2.192405,0.16398 -3.468637,0.21343 -1.276232,0.0494 -2.746098,0.0509 -4.615819,-0.11578 -0.282419,-0.0252 -0.568265,-0.052 -0.857528,-0.0802 -2.2094,-0.21783 -4.608254,-0.50977 -7.214236,-0.71639 -1.250079,-0.0992 -3.493122,-0.40343 -5.773073,-0.74053 -2.279951,-0.33709 -4.596846,-0.70753 -6.045532,-0.76117 -1.385424,-0.0513 -2.302358,0.27855 -3.283646,0.76742 -0.981288,0.48887 -2.024513,1.13768 -3.670322,1.66675 -1.328591,0.42709 -2.292828,1.05218 -3.324311,1.71233 -1.031484,0.66015 -2.13003,1.35622 -3.744874,1.87846 -2.803645,0.90671 -5.861785,1.7693 -9.208364,2.39123 -0.502297,0.0934 -1.01103,0.18124 -1.52624,0.26298 -2.587578,0.41154 -5.336087,0.67331 -8.240877,0.70121 3.13538,-0.67385 6.053299,-1.55373 8.681254,-2.52711 0.07101,-0.0263 0.141807,-0.0527 0.212394,-0.0791 1e-6,0 1e-6,0 1e-6,0 3.001753,-1.1217 5.613879,-2.36724 7.770616,-3.5451 4.047852,-2.21064 6.505225,-4.16284 7.04431,-4.71778 -3.819765,-1.00348 -6.6318,-1.97936 -9.429532,-3.09179 -0.43654,-0.17357 -0.872574,-0.35108 -1.311682,-0.53376 -2.309798,-0.96121 -4.709642,-2.0533 -7.690727,-3.52482 -2.435656,-1.20229 -5.259724,-2.65836 -8.695133,-4.5812 -2.473871,-1.38464 -5.264159,-3.01299 -8.431642,-4.99394 -2.4850645,-1.55416 -5.2020569,-3.32605 -8.1681947,-5.37788 2.9227084,1.70429 5.5716953,3.14517 7.9737297,4.38591 3.113636,1.60832 5.812036,2.88155 8.178332,3.93139 3.372157,1.49611 6.069177,2.54214 8.388091,3.36327 3.32349,1.17685 5.871061,1.89809 8.620556,2.54568 0.391138,0.0921 0.786466,0.18233 1.188888,0.27129 2.166574,0.47928 4.538721,0.93238 7.572594,1.39517 0.295367,-1.76555 -0.229952,-4.04215 -1.391984,-6.98524 -0.631835,-1.60026 -1.449764,-3.39904 -2.405681,-5.42641 -0.159805,-0.33694 -0.32351,-0.68026 -0.490882,-1.03011 -0.902581,-1.88663 -1.912219,-3.96318 -2.989055,-6.2545 1.554053,1.50425 2.972355,3.16541 4.300397,4.89024 0.565517,0.73884 1.115031,1.48995 1.650394,2.2453 1.953082,2.75568 3.726631,5.56936 5.331074,8.03504 2.712012,4.16776 4.926363,7.34083 6.327195,7.50448 2.635642,0.3079 5.222739,0.59428 8.16568,0.86613 2.97042,0.27434 6.298611,0.49534 8.900884,0.59265 0.874293,0.0327 1.837402,0.0386 2.828687,0.0187 2.285489,-0.0388 4.714176,-0.22926 6.563655,-0.43445 1.849479,-0.20518 3.122924,-0.41022 3.122924,-0.41022 -0.924759,-2.50438 -1.604849,-4.08405 -2.409902,-5.51486 -0.805053,-1.4308 -1.738583,-2.71095 -3.048144,-4.65872 -1.074633,-1.59834 -2.482863,-3.2201 -3.940661,-4.84749 -2.110272,-2.29944 -4.3334,-4.59201 -6.042357,-6.66245 1.011693,0.53509 3.372379,2.16795 6.089773,4.04917 2.754705,1.98294 5.944063,4.17286 8.058334,6.06426 2.091342,1.8709 3.858626,3.78234 5.374381,5.66892 1.515756,1.88657 2.779487,3.74658 3.88908,5.47361 0.841843,0.0241 1.387764,-0.0189 2.252544,-0.13916 0.864779,-0.12031 2.049056,-0.31174 4.165618,-0.6641 2.719749,-0.45281 5.819819,-1.10767 9.104709,-1.97798 2.88248,-0.76326 5.90663,-1.69293 8.94359,-2.76248 2.93819,-1.03486 5.88796,-2.20074 8.73968,-3.44638 2.97442,-1.29928 5.84197,-2.68478 8.49042,-4.07326 3.06877,-1.60884 5.84325,-3.22081 8.17126,-4.68371 4.28477,-2.69251 7.06188,-4.85914 7.47417,-5.614 z"
               id="path3926"
               inkscape:connector-curvature="0"
               sodipodi:nodetypes="ccccscccccsccccccsssssscsscsssscsssscsscsssssczczcsssssscc" />
            <g
               style="fill:#000000;fill-opacity:1;stroke:none"
               id="g3928">
              <g
                 id="g3930"
                 style="fill:#000000;fill-opacity:1;stroke:none">
                <path
                   inkscape:original-d="m 153.54319,772.17112 0.12627,4.16688 c 0,0 -26.04841,-2.38379 -34.38217,-2.51006 -8.33376,-0.12627 -25.691273,0.12627 -25.691273,0.12627 0,0 -4.702593,8.31844 -11.773661,14.63189 -7.071068,6.31345 -19.192898,12.37437 -19.192898,12.37437 0,0 8.460027,-4.29315 16.667517,-12.2481 8.207489,-7.95495 10.85914,-14.39468 11.995561,-15.5311 1.136422,-1.13642 26.769044,-2.52538 33.966384,-2.14657 7.19733,0.37881 28.28427,1.13642 28.28427,1.13642 z"
                   sodipodi:nodetypes="ccscscsssc"
                   inkscape:connector-curvature="0"
                   id="path3932"
                   d="m 153.97132,774.47189 c 0.76124,1.16568 1.52326,2.33079 2.28606,3.49533 0,0 -1.58945,0.81063 -4.13351,2.02135 -2.54406,1.21072 -6.04997,2.80735 -9.86371,4.38393 -3.81374,1.57657 -7.93446,3.12592 -11.64399,4.4096 -3.70954,1.28368 -7.00499,2.30777 -9.13925,3.01736 -2.13425,0.70959 -4.85093,1.58972 -7.74673,2.43212 -2.8958,0.8424 -5.97085,1.64407 -8.79322,2.29054 -5.644751,1.29295 -10.273635,1.96069 -10.273635,1.96069 0,0 -0.936731,2.233 -2.913019,5.32497 -1.976288,3.09196 -5.039271,7.04123 -9.214555,10.36041 -2.007799,1.59612 -4.4536,3.15016 -7.064132,4.54169 -4.102189,2.14241 -8.560398,3.83101 -12.005326,4.92358 -3.444928,1.09258 -5.855617,1.62556 -5.855617,1.62556 0,0 2.210304,-0.49606 5.572367,-1.73129 3.362062,-1.23522 7.863006,-3.24146 12.313473,-6.19013 10e-7,0 10e-7,0 2e-6,0 1.34513,-0.90396 2.679618,-1.88855 3.973976,-2.95147 4.950531,-4.06535 7.752604,-7.90721 9.543354,-10.81387 1.790751,-2.90665 2.561579,-4.90167 3.098567,-5.53491 0.268494,-0.31663 2.160212,-0.83102 4.923562,-1.56004 2.76335,-0.72903 6.395213,-1.69292 10.175973,-2.83841 3.78076,-1.14548 7.70924,-2.47326 11.13088,-3.70803 3.42163,-1.23478 6.33979,-2.36579 8.15193,-2.97986 1.81214,-0.61408 4.48209,-1.58387 7.43766,-2.78239 2.95556,-1.19852 6.1942,-2.62886 9.17371,-4.05091 5.959,-2.84411 10.86518,-5.64582 10.86518,-5.64582 z"
                   style="fill:#000000;fill-opacity:1;stroke:none" />
                <path
                   inkscape:original-d="m 84.464285,774.14789 c 0,0 -7.142856,-0.35714 -14.107142,-0.62499 -6.15681,-0.2368 -14.017858,0.44642 -16.160714,2.32143 -4.041161,3.53603 -7.678572,7.85714 -11.875,10.35714 -4.196429,2.5 -9.375,5.26786 -9.375,5.26786 0,0 10.982142,-7.85715 13.928571,-10.71429 2.946429,-2.85714 6.401717,-6.95186 9.642857,-8.30357 1.539479,-0.64204 25.089286,-1.25 26.160715,-0.625 1.071428,0.625 1.785713,2.32142 1.785713,2.32142 z"
                   sodipodi:nodetypes="cssscsssc"
                   inkscape:connector-curvature="0"
                   id="path3934"
                   d="m 84.885724,799.64941 c 0,0 -4.008739,0.0969 -9.064754,-0.19299 -10e-7,0 -10e-7,0 -10e-7,0 -1.963369,-0.11513 -4.078947,-0.28733 -6.171403,-0.50847 -3.305603,-0.34936 -7.062501,-0.66303 -10.330439,-0.78655 -3.267937,-0.12352 -6.055469,-0.0411 -7.40028,0.63335 -2.536145,1.27193 -5.083336,2.68779 -7.692009,3.90162 -2.608674,1.21384 -5.279604,2.22524 -8.014585,2.67505 -1.370259,0.22535 -2.825015,0.42404 -4.239062,0.58513 0,0 0,0 -1e-6,0 -4.218739,0.48176 -8.063034,0.62417 -8.063034,0.62417 0,0 4.039664,-0.63084 8.420828,-1.66833 2.071441,-0.48937 4.215839,-1.07029 6.075363,-1.65425 1.859525,-0.58397 3.435229,-1.16822 4.402936,-1.6218 1.993677,-0.93446 4.161919,-2.17444 6.267581,-3.2743 2.105662,-1.09985 4.148162,-2.05912 5.977893,-2.3976 0.587856,-0.10874 3.814073,0.30087 7.884061,0.65238 2.034994,0.17576 4.281071,0.33612 6.510809,0.44717 2.229738,0.11106 4.442893,0.17271 6.411116,0.20029 10e-7,0 2e-6,0 2e-6,0 3.765812,0.0543 6.622123,-0.0122 6.99812,0.17346 1.161942,0.57372 2.026859,2.21167 2.026859,2.21167 z"
                   style="fill:#000000;fill-opacity:1;stroke:none" />
              </g>
              <path
                 inkscape:original-d="m 49.497475,773.68635 c -15.500327,0.191 -29.967859,-1.68359 -44.9517885,-2.52538 0,0 35.1028015,1.13642 39.6484875,1.13642 4.545687,0 5.303301,1.38896 5.303301,1.38896 z"
                 style="fill:#000000;fill-opacity:1;stroke:none"
                 d="m 47.420473,795.53884 c -3.697105,-0.88626 -7.274347,-2.02058 -10.730842,-3.3464 -5.880551,-2.25641 -11.406802,-5.04568 -16.709421,-8.13429 -5.302618,-3.08861 -10.3843022,-6.47767 -15.4312289,-10.00767 0,0 1.2926762,0.87465 3.4247927,2.2285 2.1321162,1.35385 5.1106812,3.17757 8.4814232,5.05789 3.370741,1.88033 7.136133,3.81015 10.769787,5.4832 3.633654,1.67306 7.133717,3.08946 9.897348,4.10961 2.456306,0.90667 4.326115,1.50802 5.172547,1.76016 2.327937,0.69347 3.609183,1.3821 4.309544,1.9231 0.70036,0.54101 0.81605,0.9259 0.81605,0.9259 z"
                 id="path3936"
                 inkscape:connector-curvature="0"
                 sodipodi:nodetypes="ccsc" />
              <path
                 inkscape:original-d="m 93.214286,767.80861 c 0,0 -1.928493,-5.97438 -5.803572,-10.17857 -5.519599,-5.98837 -18.482142,-11.60714 -18.482142,-11.60714 0,0 12.410714,6.96428 17.946428,14.375 1.557838,2.08549 2.767857,5.80357 4.375,6.78571 1.607143,0.98215 1.964286,0.625 1.964286,0.625 z"
                 style="fill:#000000;fill-opacity:1;stroke:none"
                 d="m 93.43323,792.482 c 0,0 -0.699861,-1.40109 -1.900085,-3.27679 -1.200225,-1.8757 -2.885794,-4.22803 -4.869022,-6.16361 -1.414257,-1.38029 -3.202014,-2.73649 -5.034343,-4.04816 -1.832328,-1.31167 -3.708952,-2.58044 -5.370039,-3.71945 -3.34137,-2.19959 -5.887767,-3.8391 -5.887767,-3.8391 0,0 2.512395,2.05818 5.868874,4.88034 1.591342,1.38159 3.390311,2.92655 5.169318,4.53497 1.779008,1.60842 3.537849,3.28148 4.975633,4.97694 1.655946,1.95271 3.235143,5.51467 4.977168,6.29175 1.742026,0.77708 2.070263,0.36311 2.070263,0.36311 z"
                 id="path3938"
                 inkscape:connector-curvature="0"
                 sodipodi:nodetypes="cscssc" />
              <path
                 inkscape:original-d="m 56.063466,768.50932 c 0,0 -7.197337,-6.69226 -11.869292,-10.35407 -4.671956,-3.6618 -10.985409,-6.43972 -10.985409,-6.43972 0,0 11.237947,7.57615 13.763328,10.48033 2.525382,2.90419 4.16688,5.55584 5.808377,5.93465 1.641498,0.37881 3.282996,0.37881 3.282996,0.37881 z"
                 style="fill:#000000;fill-opacity:1;stroke:none"
                 d="m 55.332053,792.00299 c 0,0 -1.529262,-1.99429 -3.385764,-4.6116 -1.856502,-2.6173 -3.996336,-5.86694 -5.612959,-8.25864 -1.119807,-1.65668 -2.390783,-3.2824 -3.554077,-4.71182 0,0 0,0 0,0 -2.20829,-2.69756 -4.057688,-4.70917 -4.057688,-4.70917 0,0 1.669861,2.66965 3.709765,5.72453 1.027989,1.54846 2.153595,3.19869 3.140741,4.67446 0.987146,1.47577 1.832989,2.77809 2.245168,3.64902 1.637576,3.46022 2.690434,6.43545 4.264735,7.17568 1.574301,0.74022 3.250079,1.06754 3.250079,1.06754 z"
                 id="path3940"
                 inkscape:connector-curvature="0" />
            </g>
          </g>
        </g>
        <text
           sodipodi:linespacing="125%"
           id="text3045"
           y="1002.7323"
           x="65.456284"
           style="font-size:72px;font-style:normal;font-variant:normal;font-weight:normal;font-stretch:normal;line-height:125%;letter-spacing:0px;word-spacing:0px;fill:#000000;fill-opacity:1;stroke:#ffffff;stroke-width:1;stroke-linejoin:miter;stroke-miterlimit:4;stroke-opacity:1;stroke-dasharray:none;font-family:Harabara;-inkscape-font-specification:GeosansLight"
           xml:space="preserve"><tspan
             style="font-style:normal;font-variant:normal;font-weight:normal;font-stretch:normal;fill:#000000;fill-opacity:1;stroke:#ffffff;stroke-width:1;stroke-linejoin:miter;stroke-miterlimit:4;stroke-opacity:1;stroke-dasharray:none;font-family:BorisBlackBloxx;-inkscape-font-specification:BorisBlackBloxx"
             y="1002.7323"
             x="65.456284"
             id="tspan3047"
             sodipodi:role="line">kaIL</tspan></text>
        <g
           inkscape:path-effect="#path-effect3870"
           transform="matrix(0.68251363,0.28200645,-0.19774899,0.47859325,167.31127,600.40453)"
           id="g3850"
           style="stroke:none;display:inline">
          <path
             inkscape:original-d="m 157.25623,765.14101 c 0,0 -0.1698,-3.21524 -6.1438,-5.26461 -2.0264,-0.69519 -5.2258,0.006 -8.808,-0.2494 -4.1294,-0.29496 -6.1279,-2.2045 -8.00243,-2.94529 -2.95004,-1.16585 -3.33166,-0.7966 -7.04988,-1.42227 -2.01052,-0.33832 -4.68609,2.00811 -8.1812,0.0744 -2.43744,-1.34852 -6.2883,-1.79832 -10.09593,-3.24249 -2.55316,-0.96837 -1.69042,-5.1309 -4.14625,-7.17428 -2.26982,-1.88862 -6.085475,-2.13823 -8.350765,-4.07005 -2.40627,-2.05204 -6.03558,-5.77531 -8.28374,-7.3774 -2.93095,-2.08866 -6.16563,0.46399 -8.51927,0.14593 -4.15411,-0.56137 -6.72999,-1.96709 -9.08174,-1.05332 -3.53443,1.3733 -3.40151,3.23514 -4.80946,5.839 -1.86967,3.45775 -4.91418,2.34232 -7.82707,2.79046 -2.36647,0.36407 -4.92976,3.03691 -7.61893,2.45418 -2.40941,-0.52212 -3.90971,-2.2351 -6.47021,-2.7615 -2.51097,-0.51622 -6.0802,0.14738 -8.63929,0.30732 -4.53681,0.28355 -5.60985,3.19663 -7.95156,5.17258 -1.82948,1.54372 -4.98104,0.66238 -8.96851,2.65611 -2.96432,1.48216 -3.50533,6.48809 -6.00751,8.04979 -2.9181702,1.82134 -10.7157202,-0.77881 -9.2472802,3.72726 0.98527,3.02342 -3.18049,5.28723 -3.18049,8.67853 0,2.33444 -0.84589,7.29588 2.41794,8.21698 8.3485802,2.3561 3.56766,3.97387 5.06225,6.65079 2.04331,3.65971 5.1210402,1.93872 7.4006102,3.7895 2.23056,1.81099 2.91627,8.05271 5.72461,7.4594 7.31206,-1.5448 5.35246,2.21599 8.18394,2.67268 3.63147,0.58572 5.11166,-1.9245 6.9587,-2.17113 3.8423,-0.51305 4.90075,3.64941 7.65682,3.65028 1.63137,5.2e-4 5.1202,-2.95753 8.87053,-1.22661 3.53627,1.63213 0.98089,5.17852 1.59861,6.88667 1.11248,3.07629 4.1296,1.11842 6.86052,1.46725 5.36196,0.68491 2.32358,5.27884 6.44062,5.0306 2.94342,-0.17747 5.67543,-5.3346 8.23301,-6.24168 2.70433,-0.95912 5.21392,2.30175 7.5734,0.87008 2.46568,-1.49611 2.49459,-5.42543 4.68335,-7.03817 2.40485,-1.77195 7.95628,-1.72334 10.15587,-3.11896 2.640315,-1.67528 3.413655,-6.16739 5.972395,-6.44209 3.01468,-0.32365 4.64972,-3.45941 6.78316,-4.56205 2.39622,-1.23844 6.48576,2.52401 8.74209,1.10517 2.09395,-1.31673 4.85412,-6.82553 7.68125,-2.28554 1.20798,1.93985 3.74882,-1.17933 6.84553,-1.07611 3.56751,0.11892 5.83451,-2.37029 8.40031,-2.41877 4.0801,-0.0771 8.2628,-0.11571 10.3608,-0.62861 4.4346,-1.08407 4.6922,-0.88592 4.9775,-4.02369 0.1739,-1.91321 0.2043,-3.80143 0.1694,-5.455 -0.067,-3.14829 -0.3699,-5.44597 -0.3699,-5.44597 l 0,0"
             style="fill:#128e00;fill-opacity:1;stroke:none"
             d="m 153.56767,766.44336 c 0,0 -0.47081,-0.65119 -1.71884,-1.12274 -1.24803,-0.47155 -3.26509,-0.75694 -6.36984,-0.13165 -2.1063,0.42416 -4.53973,2.61897 -7.82593,4.04803 -1.89421,0.82344 -3.5086,1.0072 -4.8846,1.00109 -1.376,-0.006 -2.51666,-0.20204 -3.50126,-0.15346 -1.54952,0.0765 -2.36367,0.22137 -3.23752,0.46382 -0.87385,0.24245 -1.80704,0.58416 -3.57314,0.97731 -0.95497,0.21259 -1.80573,1.10105 -2.91131,1.85548 -1.10559,0.75442 -2.47098,1.376 -4.35447,1.01502 -2.62702,-0.50346 -6.20362,0.19631 -9.93155,-0.27658 -1.24986,-0.15855 -1.93523,-1.30636 -2.63016,-2.58604 -0.69492,-1.27969 -1.40352,-2.69082 -2.652448,-3.4362 -1.154336,-0.68894 -2.512397,-0.9246 -3.852286,-1.19794 -1.33989,-0.27333 -2.661402,-0.58467 -3.715441,-1.38236 -1.119636,-0.84734 -2.509882,-2.08947 -3.813563,-3.31528 -1.303681,-1.2258 -2.520853,-2.43479 -3.40653,-3.16039 -1.154668,-0.94598 -2.224542,-0.76796 -3.25129,-0.39726 -1.026748,0.37069 -2.009908,0.93378 -2.848562,0.76417 -0.960233,-0.19419 -1.791122,-0.4985 -2.526924,-0.79341 -1.559877,-0.54311 -2.718634,-1.04248 -3.894416,-0.50172 -1.307703,0.60142 -2.002287,1.34317 -2.525987,2.25936 -0.523701,0.91618 -0.874399,2.0025 -1.558281,3.23595 -0.908153,1.63793 -1.958397,2.10015 -3.063523,2.15388 -1.105126,0.0537 -2.259795,-0.30056 -3.455671,-0.28876 -0.971544,0.01 -2.09552,0.56374 -3.253397,0.97328 -1.157877,0.40955 -2.350212,0.67383 -3.370903,0.12316 -1.829011,-0.9868 -2.576745,-2.96497 -4.430459,-4.07008 -1.00549,-0.59944 -2.358128,-0.94784 -3.717317,-1.24893 -1.108016,-0.24309 -2.222178,-0.45868 -3.144461,-0.72592 -1.829394,-0.53008 -3.222666,-0.24089 -4.50652,0.31898 -1.283854,0.55987 -2.451447,1.38813 -3.801562,1.86963 -1.054787,0.37618 -2.142519,0.0666 -3.472266,-0.31886 -1.329747,-0.38541 -2.897919,-0.84505 -4.983884,-0.80194 -3.101451,0.0641 -5.939591,4.21412 -8.835918,4.3747 -1.688924,0.0936 -3.874788,-1.40394 -5.743405,-2.3812 -1.868618,-0.97726 -3.4545677,-1.42981 -4.039221,0.868 -0.392284,1.54176 -1.775586,2.23308 -3.3110738,2.87205 -1.5354877,0.63897 -3.221314,1.22263 -4.154638,2.63833 -0.6424643,0.97452 -1.83650909,2.37195 -2.5665921,3.86381 -0.7300829,1.49187 -0.9921525,3.08857 0.2667881,4.44351 1.61012649,1.73291 2.5220916,2.9244 2.9579706,3.80498 0.4358789,0.88058 0.3980949,1.44773 0.1484268,1.90096 -0.4993362,0.90646 -1.85277792,1.34565 -1.81508833,2.93145 0.0515288,2.168 1.08088043,3.33968 2.26490113,4.3163 1.1840207,0.97661 2.5204847,1.75693 3.2462891,3.20381 0.7101996,1.41577 0.5231414,3.59372 0.5808603,5.55511 0.057719,1.96139 0.365166,3.70995 2.031171,4.20484 2.1688842,0.64427 3.5686672,1.23906 4.4944052,1.82545 0.925738,0.58638 1.376914,1.16144 1.648763,1.72417 0.543699,1.12545 0.362749,2.20422 1.897591,3.11227 1.968488,1.16461 3.646257,1.32307 5.087897,1.26556 1.441639,-0.0575 2.653085,-0.33079 3.773028,-0.0437 1.795904,0.46045 2.881278,1.36986 3.74164,2.39305 1.380289,1.63135 2.185001,3.55325 4.270131,4.19317 1.004135,0.30817 2.794743,0.0725 4.840461,0.0908 2.045718,0.0183 4.339942,0.28776 6.494711,1.66722 2.031779,1.30072 2.091655,2.61988 1.666772,3.86314 -0.424883,1.24326 -1.335266,2.39207 -1.109411,3.31392 0.406751,1.6602 1.729034,2.22327 3.39048,2.47545 1.661446,0.25219 3.653311,0.18955 5.464824,0.64567 1.778386,0.44779 2.82699,1.00456 3.485882,1.61841 0.658891,0.61386 0.926713,1.28149 1.146792,1.91428 0.440159,1.26559 0.690361,2.41311 3.599929,2.57605 2.080154,0.11648 4.19882,-1.05309 6.19535,-2.35595 1.996531,-1.30286 3.872334,-2.73806 5.636976,-3.14258 0.372265,-0.0853 0.740329,-0.13009 1.105261,-0.14301 1.659267,-0.0912 3.253409,0.46786 4.815253,0.86827 1.561845,0.4004 3.089997,0.64198 4.518134,-0.0778 1.65779,-0.83554 2.420701,-2.24582 3.115601,-3.66477 0.6949,-1.41894 1.322393,-2.84777 2.671448,-3.77506 1.482244,-1.01884 3.98424,-1.70767 6.422047,-2.41333 2.437808,-0.70566 4.812185,-1.42647 6.057975,-2.34465 1.4954,-1.10217 2.25334,-2.80884 3.00149,-4.34192 0.74816,-1.53308 1.48429,-2.89256 2.95587,-3.35663 1.7338,-0.54676 2.8884,-1.71151 3.86061,-2.94365 0.9722,-1.23214 1.76462,-2.53316 2.81303,-3.39223 1.17755,-0.96487 3.15118,-0.87901 5.11933,-0.85265 1.96815,0.0264 3.92867,-0.007 4.94094,-1.10506 0.93941,-1.01949 1.68575,-3.09734 2.74095,-4.53176 1.0552,-1.43442 2.41772,-2.22393 4.78205,-0.72516 1.01024,0.6404 1.90574,-0.0445 2.93946,-1.05603 1.03373,-1.01153 2.19938,-2.34763 3.82585,-3.03522 1.87375,-0.79212 3.11722,-2.05082 4.19713,-3.2706 1.07991,-1.21978 1.99823,-2.40213 3.26258,-3.0908 4.02111,-2.19024 8.04737,-4.58204 9.78254,-6.22916 1.83386,-1.74076 2.80603,-2.62633 3.16076,-3.41791 0.35474,-0.79159 0.0848,-1.49294 -0.62759,-2.8998 -0.86885,-1.71561 -1.85939,-3.32332 -2.78042,-4.69718 -1.75407,-2.61543 -3.2527,-4.38661 -3.2527,-4.38661"
             id="path3852"
             inkscape:connector-curvature="0"
             sodipodi:nodetypes="cssssssssssssscssssssssssssssssssssssssssssssscc" />
          <path
             inkscape:original-d="m 153.6574,776.116 c -2.4565,-0.48643 -5.3634,-0.88342 -8.5526,-1.20631 -2.703,-0.27366 -5.6087,-0.49409 -8.6147,-0.67064 -2.8172,-0.16546 -5.72243,-0.29236 -8.63142,-0.38841 -2.90399,-0.0959 -5.81171,-0.16101 -8.63924,-0.20303 -3.00406,-0.0446 -5.91762,-0.0632 -8.64005,-0.0649 -3.1979,-0.002 -6.13208,0.0195 -8.63946,0.0493 -5.25839,0.0626 -8.63969,0.1625 -8.63969,0.1625 -1.45116,2.567 -2.97872,4.90441 -4.60689,7.05968 -1.73405,2.29541 -3.5822,4.38422 -5.5737,6.32377 -1.99448,1.94246 -4.13274,3.73521 -6.44413,5.43583 -2.18641,1.60866 -4.52773,3.13489 -7.04882,4.62743 -2.30883,1.36687 -4.76843,2.70549 -7.39789,4.05329 2.56164,-2.05412 4.91515,-3.91603 7.05304,-5.64596 2.61652,-2.11722 4.9101,-4.03675 6.86703,-5.86899 2.51057,-2.3506 4.46708,-4.55755 5.84066,-6.85397 1.57361,-2.63084 2.38213,-5.91483 2.38213,-9.13107 -2.06177,0 -4.03128,0.19536 -7.49295,-0.10187 -2.25923,-0.19398 -4.76195,-0.43269 -7.50767,-0.43484 -2.3294,-0.002 -8.40274,-0.3944 -11.07081,9.9e-4 -2.55156,0.37812 -3.11616,1.99868 -5.80468,3.75533 -2.17033,1.41806 -2.83754,3.33611 -5.31181,5.19077 -2.14788,1.61 -4.44642,3.30679 -6.95836,4.95547 -2.27581,1.4937 -4.72679,2.9479 -7.39959,4.26227 2.21072,-1.78248 4.25657,-3.614 6.10452,-5.39324 2.16856,-2.08793 4.06461,-4.10386 5.63477,-5.88404 2.87909,-3.26416 4.66253,-5.73568 5.02136,-6.40501 -3.65492,-0.0432 -6.40426,-0.15878 -9.19422,-0.33513 -2.7259,-0.17231 -5.49059,-0.40257 -9.17657,-0.67982 -2.53063,-0.19035 -5.49552,-0.40285 -9.18027,-0.63395 -2.65342,-0.16641 -5.68014,-0.34247 -9.18679,-0.52684 -2.75116,-0.14465 -5.7977305,-0.29442 -9.1912205,-0.44867 3.18436,-0.1165 6.02434,-0.22244 8.5743405,-0.32089 3.30544,-0.12761 6.12362,-0.24263 8.57299,-0.35172 3.49055,-0.15545 6.23209,-0.29887 8.56743,-0.44954 3.34703,-0.21595 5.85967,-0.4468 8.5471,-0.74937 2.44198,-0.27493 5.02829,-0.60907 8.51606,-1.04504 -0.18245,-1.77957 -1.25997,-3.8397 -3.26287,-6.31264 -1.27005,-1.56811 -2.91218,-3.3022 -4.93412,-5.23599 -1.55399,-1.48625 -3.33234,-3.09047 -5.33854,-4.82796 3.10583,1.18511 5.98713,2.87145 8.60514,4.72514 2.86409,2.02794 5.41306,4.25615 7.59616,6.24746 3.69012,3.36593 6.33488,6.05499 7.68919,5.9558 2.54811,-0.18663 5.05812,-0.31003 7.91495,-0.39034 2.8835,-0.0811 6.11364,-0.1182 8.63745,-0.13213 4.76256,-0.0263 12.210291,-0.68419 12.210291,-0.68419 -1.470006,-5.14512 -2.387732,-6.48967 -5.119211,-10.43296 -2.731479,-3.94329 -7.950164,-7.91846 -11.75842,-11.17418 2.54738,0.90622 12.048415,5.92822 16.336178,9.92674 4.287763,3.99853 6.644311,8.32652 8.330207,12.07004 1.61925,0.27788 2.123275,0.14581 6.287525,0.24795 2.6755,0.0656 5.74128,0.0976 9.02385,0.0994 2.88033,0.002 5.92759,-0.0202 9.02456,-0.0628 2.99628,-0.0413 6.03909,-0.10223 9.0223,-0.18071 3.11159,-0.0819 6.15836,-0.18281 9.01976,-0.30049 3.3155,-0.13636 6.3823,-0.29518 9.0129,-0.47279 4.8417,-0.32689 8.206,-0.71743 8.9248,-1.14872 l 0,10"
             style="fill:#93d11f;fill-opacity:1;stroke:none"
             d="m 156.1305,777.78411 c -2.54005,0.98015 -5.47052,2.23626 -8.6701,3.61154 -2.71179,1.16561 -5.61688,2.41646 -8.63225,3.66726 -2.82598,1.17223 -5.74869,2.34416 -8.69139,3.45929 -2.93764,1.11319 -5.8951,2.16954 -8.78833,3.13094 -3.07385,1.02146 -6.07516,1.93536 -8.8957,2.72175 -3.31316,0.92373 -6.37671,1.67142 -9.00717,2.25205 -2.75824,0.60889 -5.039712,1.03695 -6.630153,1.31902 -1.590441,0.28206 -2.489043,0.42297 -2.489043,0.42297 -1.200571,2.74085 -2.609907,5.25137 -4.246888,7.5656 -1.743436,2.4647 -3.744853,4.70706 -6.03842,6.75968 -2.296999,2.05571 -4.88678,3.92143 -7.817932,5.61693 -0.2482,0.14357 -0.498858,0.28591 -0.752008,0.42703 -2.561545,1.40059 -5.357746,2.66421 -8.410669,3.79278 -3.07077,1.13516 -6.40131,2.13391 -10.017899,2.98636 3.627056,-1.56405 6.848175,-3.10026 9.700785,-4.60801 3.453107,-1.82513 6.366663,-3.60816 8.785911,-5.37481 0.02684,-0.0198 0.05362,-0.0397 0.08034,-0.0595 3.137209,-2.32742 5.412244,-4.60158 6.922826,-6.95328 1.730562,-2.69418 2.418737,-6.02026 2.232988,-9.21774 -1.108945,0.065 -2.192405,0.16398 -3.468637,0.21343 -1.276232,0.0494 -2.746098,0.0509 -4.615819,-0.11578 -0.282419,-0.0252 -0.568265,-0.052 -0.857528,-0.0802 -2.2094,-0.21783 -4.608254,-0.50977 -7.214236,-0.71639 -1.250079,-0.0992 -3.493122,-0.40343 -5.773073,-0.74053 -2.279951,-0.33709 -4.596846,-0.70753 -6.045532,-0.76117 -1.385424,-0.0513 -2.302358,0.27855 -3.283646,0.76742 -0.981288,0.48887 -2.024513,1.13768 -3.670322,1.66675 -1.328591,0.42709 -2.292828,1.05218 -3.324311,1.71233 -1.031484,0.66015 -2.13003,1.35622 -3.744874,1.87846 -2.803645,0.90671 -5.861785,1.7693 -9.208364,2.39123 -0.502297,0.0934 -1.01103,0.18124 -1.52624,0.26298 -2.587578,0.41154 -5.336087,0.67331 -8.240877,0.70121 3.13538,-0.67385 6.053299,-1.55373 8.681254,-2.52711 0.07101,-0.0263 0.141807,-0.0527 0.212394,-0.0791 1e-6,0 1e-6,0 1e-6,0 3.001753,-1.1217 5.613879,-2.36724 7.770616,-3.5451 4.047852,-2.21064 6.505225,-4.16284 7.04431,-4.71778 -3.819765,-1.00348 -6.6318,-1.97936 -9.429532,-3.09179 -0.43654,-0.17357 -0.872574,-0.35108 -1.311682,-0.53376 -2.309798,-0.96121 -4.709642,-2.0533 -7.690727,-3.52482 -2.435656,-1.20229 -5.259724,-2.65836 -8.695133,-4.5812 -2.473871,-1.38464 -5.264159,-3.01299 -8.431642,-4.99394 -2.4850645,-1.55416 -5.2020569,-3.32605 -8.1681947,-5.37788 2.9227084,1.70429 5.5716953,3.14517 7.9737297,4.38591 3.113636,1.60832 5.812036,2.88155 8.178332,3.93139 3.372157,1.49611 6.069177,2.54214 8.388091,3.36327 3.32349,1.17685 5.871061,1.89809 8.620556,2.54568 0.391138,0.0921 0.786466,0.18233 1.188888,0.27129 2.166574,0.47928 4.538721,0.93238 7.572594,1.39517 0.295367,-1.76555 -0.229952,-4.04215 -1.391984,-6.98524 -0.631835,-1.60026 -1.449764,-3.39904 -2.405681,-5.42641 -0.159805,-0.33694 -0.32351,-0.68026 -0.490882,-1.03011 -0.902581,-1.88663 -1.912219,-3.96318 -2.989055,-6.2545 1.554053,1.50425 2.972355,3.16541 4.300397,4.89024 0.565517,0.73884 1.115031,1.48995 1.650394,2.2453 1.953082,2.75568 3.726631,5.56936 5.331074,8.03504 2.712012,4.16776 4.926363,7.34083 6.327195,7.50448 2.635642,0.3079 5.222739,0.59428 8.16568,0.86613 2.97042,0.27434 6.298611,0.49534 8.900884,0.59265 0.874293,0.0327 1.837402,0.0386 2.828687,0.0187 2.285489,-0.0388 4.714176,-0.22926 6.563655,-0.43445 1.849479,-0.20518 3.122924,-0.41022 3.122924,-0.41022 -0.924759,-2.50438 -1.604849,-4.08405 -2.409902,-5.51486 -0.805053,-1.4308 -1.738583,-2.71095 -3.048144,-4.65872 -1.074633,-1.59834 -2.482863,-3.2201 -3.940661,-4.84749 -2.110272,-2.29944 -4.3334,-4.59201 -6.042357,-6.66245 1.011693,0.53509 3.372379,2.16795 6.089773,4.04917 2.754705,1.98294 5.944063,4.17286 8.058334,6.06426 2.091342,1.8709 3.858626,3.78234 5.374381,5.66892 1.515756,1.88657 2.779487,3.74658 3.88908,5.47361 0.841843,0.0241 1.387764,-0.0189 2.252544,-0.13916 0.864779,-0.12031 2.049056,-0.31174 4.165618,-0.6641 2.719749,-0.45281 5.819819,-1.10767 9.104709,-1.97798 2.88248,-0.76326 5.90663,-1.69293 8.94359,-2.76248 2.93819,-1.03486 5.88796,-2.20074 8.73968,-3.44638 2.97442,-1.29928 5.84197,-2.68478 8.49042,-4.07326 3.06877,-1.60884 5.84325,-3.22081 8.17126,-4.68371 4.28477,-2.69251 7.06188,-4.85914 7.47417,-5.614 z"
             id="path3854"
             inkscape:connector-curvature="0"
             sodipodi:nodetypes="ccccscccccsccccccsssssscsscsssscsssscsscsssssczczcsssssscc" />
          <g
             style="stroke:none"
             id="g3856">
            <g
               id="g3858"
               style="fill:#74b400;fill-opacity:1;stroke:none">
              <path
                 inkscape:original-d="m 153.54319,772.17112 0.12627,4.16688 c 0,0 -26.04841,-2.38379 -34.38217,-2.51006 -8.33376,-0.12627 -25.691273,0.12627 -25.691273,0.12627 0,0 -4.702593,8.31844 -11.773661,14.63189 -7.071068,6.31345 -19.192898,12.37437 -19.192898,12.37437 0,0 8.460027,-4.29315 16.667517,-12.2481 8.207489,-7.95495 10.85914,-14.39468 11.995561,-15.5311 1.136422,-1.13642 26.769044,-2.52538 33.966384,-2.14657 7.19733,0.37881 28.28427,1.13642 28.28427,1.13642 z"
                 sodipodi:nodetypes="ccscscsssc"
                 inkscape:connector-curvature="0"
                 id="path3860"
                 d="m 153.97132,774.47189 c 0.76124,1.16568 1.52326,2.33079 2.28606,3.49533 0,0 -1.58945,0.81063 -4.13351,2.02135 -2.54406,1.21072 -6.04997,2.80735 -9.86371,4.38393 -3.81374,1.57657 -7.93446,3.12592 -11.64399,4.4096 -3.70954,1.28368 -7.00499,2.30777 -9.13925,3.01736 -2.13425,0.70959 -4.85093,1.58972 -7.74673,2.43212 -2.8958,0.8424 -5.97085,1.64407 -8.79322,2.29054 -5.644751,1.29295 -10.273635,1.96069 -10.273635,1.96069 0,0 -0.936731,2.233 -2.913019,5.32497 -1.976288,3.09196 -5.039271,7.04123 -9.214555,10.36041 -2.007799,1.59612 -4.4536,3.15016 -7.064132,4.54169 -4.102189,2.14241 -8.560398,3.83101 -12.005326,4.92358 -3.444928,1.09258 -5.855617,1.62556 -5.855617,1.62556 0,0 2.210304,-0.49606 5.572367,-1.73129 3.362062,-1.23522 7.863006,-3.24146 12.313473,-6.19013 10e-7,0 10e-7,0 2e-6,0 1.34513,-0.90396 2.679618,-1.88855 3.973976,-2.95147 4.950531,-4.06535 7.752604,-7.90721 9.543354,-10.81387 1.790751,-2.90665 2.561579,-4.90167 3.098567,-5.53491 0.268494,-0.31663 2.160212,-0.83102 4.923562,-1.56004 2.76335,-0.72903 6.395213,-1.69292 10.175973,-2.83841 3.78076,-1.14548 7.70924,-2.47326 11.13088,-3.70803 3.42163,-1.23478 6.33979,-2.36579 8.15193,-2.97986 1.81214,-0.61408 4.48209,-1.58387 7.43766,-2.78239 2.95556,-1.19852 6.1942,-2.62886 9.17371,-4.05091 5.959,-2.84411 10.86518,-5.64582 10.86518,-5.64582 z"
                 style="fill:#74b400;fill-opacity:1;stroke:none" />
              <path
                 inkscape:original-d="m 84.464285,774.14789 c 0,0 -7.142856,-0.35714 -14.107142,-0.62499 -6.15681,-0.2368 -14.017858,0.44642 -16.160714,2.32143 -4.041161,3.53603 -7.678572,7.85714 -11.875,10.35714 -4.196429,2.5 -9.375,5.26786 -9.375,5.26786 0,0 10.982142,-7.85715 13.928571,-10.71429 2.946429,-2.85714 6.401717,-6.95186 9.642857,-8.30357 1.539479,-0.64204 25.089286,-1.25 26.160715,-0.625 1.071428,0.625 1.785713,2.32142 1.785713,2.32142 z"
                 sodipodi:nodetypes="cssscsssc"
                 inkscape:connector-curvature="0"
                 id="path3862"
                 d="m 84.885724,799.64941 c 0,0 -4.008739,0.0969 -9.064754,-0.19299 -10e-7,0 -10e-7,0 -10e-7,0 -1.963369,-0.11513 -4.078947,-0.28733 -6.171403,-0.50847 -3.305603,-0.34936 -7.062501,-0.66303 -10.330439,-0.78655 -3.267937,-0.12352 -6.055469,-0.0411 -7.40028,0.63335 -2.536145,1.27193 -5.083336,2.68779 -7.692009,3.90162 -2.608674,1.21384 -5.279604,2.22524 -8.014585,2.67505 -1.370259,0.22535 -2.825015,0.42404 -4.239062,0.58513 0,0 0,0 -1e-6,0 -4.218739,0.48176 -8.063034,0.62417 -8.063034,0.62417 0,0 4.039664,-0.63084 8.420828,-1.66833 2.071441,-0.48937 4.215839,-1.07029 6.075363,-1.65425 1.859525,-0.58397 3.435229,-1.16822 4.402936,-1.6218 1.993677,-0.93446 4.161919,-2.17444 6.267581,-3.2743 2.105662,-1.09985 4.148162,-2.05912 5.977893,-2.3976 0.587856,-0.10874 3.814073,0.30087 7.884061,0.65238 2.034994,0.17576 4.281071,0.33612 6.510809,0.44717 2.229738,0.11106 4.442893,0.17271 6.411116,0.20029 10e-7,0 2e-6,0 2e-6,0 3.765812,0.0543 6.622123,-0.0122 6.99812,0.17346 1.161942,0.57372 2.026859,2.21167 2.026859,2.21167 z"
                 style="fill:#74b400;fill-opacity:1;stroke:none" />
            </g>
            <path
               inkscape:original-d="m 49.497475,773.68635 c -15.500327,0.191 -29.967859,-1.68359 -44.9517885,-2.52538 0,0 35.1028015,1.13642 39.6484875,1.13642 4.545687,0 5.303301,1.38896 5.303301,1.38896 z"
               style="fill:#74b400;fill-opacity:1;stroke:none"
               d="m 47.420473,795.53884 c -3.697105,-0.88626 -7.274347,-2.02058 -10.730842,-3.3464 -5.880551,-2.25641 -11.406802,-5.04568 -16.709421,-8.13429 -5.302618,-3.08861 -10.3843022,-6.47767 -15.4312289,-10.00767 0,0 1.2926762,0.87465 3.4247927,2.2285 2.1321162,1.35385 5.1106812,3.17757 8.4814232,5.05789 3.370741,1.88033 7.136133,3.81015 10.769787,5.4832 3.633654,1.67306 7.133717,3.08946 9.897348,4.10961 2.456306,0.90667 4.326115,1.50802 5.172547,1.76016 2.327937,0.69347 3.609183,1.3821 4.309544,1.9231 0.70036,0.54101 0.81605,0.9259 0.81605,0.9259 z"
               id="path3864"
               inkscape:connector-curvature="0"
               sodipodi:nodetypes="ccsc" />
            <path
               inkscape:original-d="m 93.214286,767.80861 c 0,0 -1.928493,-5.97438 -5.803572,-10.17857 -5.519599,-5.98837 -18.482142,-11.60714 -18.482142,-11.60714 0,0 12.410714,6.96428 17.946428,14.375 1.557838,2.08549 2.767857,5.80357 4.375,6.78571 1.607143,0.98215 1.964286,0.625 1.964286,0.625 z"
               style="fill:#74b400;fill-opacity:1;stroke:none"
               d="m 93.43323,792.482 c 0,0 -0.699861,-1.40109 -1.900085,-3.27679 -1.200225,-1.8757 -2.885794,-4.22803 -4.869022,-6.16361 -1.414257,-1.38029 -3.202014,-2.73649 -5.034343,-4.04816 -1.832328,-1.31167 -3.708952,-2.58044 -5.370039,-3.71945 -3.34137,-2.19959 -5.887767,-3.8391 -5.887767,-3.8391 0,0 2.512395,2.05818 5.868874,4.88034 1.591342,1.38159 3.390311,2.92655 5.169318,4.53497 1.779008,1.60842 3.537849,3.28148 4.975633,4.97694 1.655946,1.95271 3.235143,5.51467 4.977168,6.29175 1.742026,0.77708 2.070263,0.36311 2.070263,0.36311 z"
               id="path3866"
               inkscape:connector-curvature="0"
               sodipodi:nodetypes="cscssc" />
            <path
               inkscape:original-d="m 56.063466,768.50932 c 0,0 -7.197337,-6.69226 -11.869292,-10.35407 -4.671956,-3.6618 -10.985409,-6.43972 -10.985409,-6.43972 0,0 11.237947,7.57615 13.763328,10.48033 2.525382,2.90419 4.16688,5.55584 5.808377,5.93465 1.641498,0.37881 3.282996,0.37881 3.282996,0.37881 z"
               style="fill:#74b400;fill-opacity:1;stroke:none"
               d="m 55.332053,792.00299 c 0,0 -1.529262,-1.99429 -3.385764,-4.6116 -1.856502,-2.6173 -3.996336,-5.86694 -5.612959,-8.25864 -1.119807,-1.65668 -2.390783,-3.2824 -3.554077,-4.71182 0,0 0,0 0,0 -2.20829,-2.69756 -4.057688,-4.70917 -4.057688,-4.70917 0,0 1.669861,2.66965 3.709765,5.72453 1.027989,1.54846 2.153595,3.19869 3.140741,4.67446 0.987146,1.47577 1.832989,2.77809 2.245168,3.64902 1.637576,3.46022 2.690434,6.43545 4.264735,7.17568 1.574301,0.74022 3.250079,1.06754 3.250079,1.06754 z"
               id="path3868"
               inkscape:connector-curvature="0" />
          </g>
        </g>
      </g>
    </g>
  </g>
</svg>
